<?xml version="1.0" standalone="no"?>
<!DOCTYPE svg PUBLIC "-//W3C//DTD SVG 20010904//EN"
 "http://www.w3.org/TR/2001/REC-SVG-20010904/DTD/svg10.dtd">
<svg version="1.0" xmlns="http://www.w3.org/2000/svg"
 width="400.000000pt" height="200.000000pt" viewBox="0 0 400.000000 200.000000"
 preserveAspectRatio="xMidYMid meet">

<g transform="translate(0.000000,200.000000) scale(0.100000,-0.100000)"
fill="#000000" stroke="none">
<path d="M1980 1473 c0 -5 151 -159 335 -343 l335 -335 -75 -75 c-41 -41 -75
-77 -75 -81 0 -7 701 -1 709 6 3 3 -181 192 -409 420 l-415 415 -202 0 c-112
0 -203 -3 -203 -7z"/>
<path d="M1139 1061 c-225 -225 -409 -412 -409 -415 0 -3 186 -6 412 -6 l413
0 -103 103 -103 103 101 104 101 104 207 -207 208 -207 207 2 207 3 -406 413
c-223 226 -410 412 -415 412 -6 0 -194 -184 -420 -409z"/>
</g>
</svg>
